<svg id="Layer_1" data-name="Layer 1" xmlns="http://www.w3.org/2000/svg" viewBox="0 0 437.66 653.22">
    <defs>
        <style>
            .cls-1{fill:#16df7e;}.cls-2{fill:#e6e6e6;}.cls-3,.cls-4{fill:#206bfb;stroke-miterlimit:10;stroke-width:5px;}.cls-3{stroke:#e6e6e6;}.cls-4{stroke:#f2f2f2;}</style>
    </defs>
    <title>FG</title>
    <ellipse class="cls-1" cx="638.06" cy="194.01" rx="75.32" ry="58.91"
        transform="translate(-117.1 545.83) rotate(-61.87)" />
    <path class="cls-2"
        d="M581.15,177.78a91.94,91.94,0,0,0-3.66,12.66,78.67,78.67,0,0,0-1.56,13.05,70,70,0,0,0,3.8,25.63,61.34,61.34,0,0,0,5.47,11.58l.83,1.35.91,1.31c.58.89,1.25,1.71,1.89,2.55a50.93,50.93,0,0,0,4.19,4.73,46.78,46.78,0,0,0,21.76,12.12,53,53,0,0,0,25.34-.2,66.38,66.38,0,0,0,12.22-4.35,71.82,71.82,0,0,0,11.22-6.67A82.48,82.48,0,0,0,681.94,233a92.45,92.45,0,0,0,12-23.16,90.85,90.85,0,0,0,4.9-25.39,72.3,72.3,0,0,0-3.16-25.33,52.79,52.79,0,0,0-12.85-21.45,46.22,46.22,0,0,0-10-7.43,45.59,45.59,0,0,0-11.63-4.41,52.14,52.14,0,0,0-24.94.61l-1.55.4-1.52.47-1.52.48-1.5.55c-1,.34-2,.73-3,1.14s-2,.84-2.94,1.29a81.86,81.86,0,0,0-11.21,6.38,85.16,85.16,0,0,0-26.31,28.71A95.09,95.09,0,0,0,581.15,177.78Zm-.47-.17a104,104,0,0,1,5.41-12.11,107.07,107.07,0,0,1,6.85-11.39,92.72,92.72,0,0,1,18.15-19.61A73.86,73.86,0,0,1,622.37,127c1-.54,2-1.07,3-1.54s2.05-1,3.11-1.4l1.59-.65,1.61-.57,1.62-.56,1.65-.49a55.21,55.21,0,0,1,27.39-1.17A48.73,48.73,0,0,1,686.5,134a57.69,57.69,0,0,1,13.65,23.74,72.71,72.71,0,0,1,2.68,27,90.1,90.1,0,0,1-6.35,26.1,99.88,99.88,0,0,1-32,42,83.8,83.8,0,0,1-11.27,7.2,68.55,68.55,0,0,1-12.4,5.19,54.36,54.36,0,0,1-27,1.58,46.93,46.93,0,0,1-24-13.08,55.71,55.71,0,0,1-4.46-5.25c-.67-.94-1.35-1.86-1.93-2.85l-.91-1.45-.84-1.5a57.83,57.83,0,0,1-5.07-12.63,75,75,0,0,1-2-26.65,93.52,93.52,0,0,1,2.18-13.12A100.13,100.13,0,0,1,580.68,177.61Z"
        transform="translate(-283.26 -119.43)" />
    <ellipse class="cls-1" cx="521.61" cy="183.5" rx="54.45" ry="43.65"
        transform="translate(24.75 574.1) rotate(-86.66)" />
    <path class="cls-2"
        d="M478.22,182.16a58.16,58.16,0,0,0,2.36,19A54.39,54.39,0,0,0,489,218a51.15,51.15,0,0,0,6.18,6.94,45.31,45.31,0,0,0,7.32,5.52,36,36,0,0,0,35,1.62A42.68,42.68,0,0,0,552,220.25a53.11,53.11,0,0,0,8.89-16.74,63.12,63.12,0,0,0,3-18.71,67.14,67.14,0,0,0-2.56-18.6,57.37,57.37,0,0,0-7.77-16.79,43.06,43.06,0,0,0-13.07-12.55,34.35,34.35,0,0,0-17-5.1,33.26,33.26,0,0,0-8.88.9,39.2,39.2,0,0,0-8.44,3.14,48.87,48.87,0,0,0-14.35,11.46,55.64,55.64,0,0,0-9.71,16.18,57.28,57.28,0,0,0-2.72,9.18A65.13,65.13,0,0,0,478.22,182.16Zm-.5,0A78.65,78.65,0,0,1,480.85,163a61.38,61.38,0,0,1,8.4-17.76,48,48,0,0,1,6.51-7.61c.62-.57,1.26-1.13,1.88-1.69l2-1.59c.69-.48,1.38-1,2.09-1.45s1.43-.92,2.18-1.33a38.81,38.81,0,0,1,19.75-5.14,38.06,38.06,0,0,1,19.58,6,46.84,46.84,0,0,1,14.25,14.37,57.44,57.44,0,0,1,7.73,18.41,67.11,67.11,0,0,1,1.41,19.71,72.64,72.64,0,0,1-4.09,19.15,65.1,65.1,0,0,1-9.22,17.19,50.91,50.91,0,0,1-14.48,13.27A37.66,37.66,0,0,1,519.58,240a36.21,36.21,0,0,1-19.39-5.74,43.42,43.42,0,0,1-13.81-14.45,60,60,0,0,1-7.05-18.33A79.49,79.49,0,0,1,477.72,182.14Z"
        transform="translate(-283.26 -119.43)" />
    <ellipse class="cls-1" cx="436.07" cy="195.33" rx="33.3" ry="44.74"
        transform="translate(-301.57 -71.94) rotate(-6.11)" />
    <path class="cls-2"
        d="M403.07,197.38a49,49,0,0,0,3.57,14.83,48.06,48.06,0,0,0,7.89,12.8,41.33,41.33,0,0,0,11.19,9.27,27.05,27.05,0,0,0,13.54,3.55,25.07,25.07,0,0,0,13.55-4.22,32,32,0,0,0,10-10.92,43.37,43.37,0,0,0,4.94-14.25,52.93,52.93,0,0,0,.21-15.08,60.81,60.81,0,0,0-3.75-14.46A51.58,51.58,0,0,0,457,166.11a36.28,36.28,0,0,0-10.77-9.4,25.34,25.34,0,0,0-13.31-3.3,24.23,24.23,0,0,0-13,4.47,36.47,36.47,0,0,0-9.87,10.5,45.39,45.39,0,0,0-5.85,13.81A49,49,0,0,0,403.07,197.38Zm-.5.05a74.33,74.33,0,0,1,.32-15.49,52.53,52.53,0,0,1,4.27-15.16,38.51,38.51,0,0,1,4.16-6.92,31.42,31.42,0,0,1,5.76-5.88,27.79,27.79,0,0,1,15.57-5.9,28.62,28.62,0,0,1,16.16,4.1,40,40,0,0,1,11.95,11.08A51.17,51.17,0,0,1,468,177.55a59.44,59.44,0,0,1,2.7,15.59,60.82,60.82,0,0,1-6.46,30.32A43.39,43.39,0,0,1,460,230.1a34.88,34.88,0,0,1-5.54,5.73,26.86,26.86,0,0,1-15,6.16,27.14,27.14,0,0,1-15.93-3.86A36.13,36.13,0,0,1,412,226.93a54.48,54.48,0,0,1-6.56-14.29A77.7,77.7,0,0,1,402.57,197.43Z"
        transform="translate(-283.26 -119.43)" />
    <ellipse class="cls-1" cx="365.89" cy="224.31" rx="26.37" ry="36.6"
        transform="translate(-343.52 54.01) rotate(-24.7)" />
    <path class="cls-2"
        d="M340.53,231.22a40.82,40.82,0,0,0,14.63,19.21,38.17,38.17,0,0,0,10.38,5.38,23.61,23.61,0,0,0,11.09,1,18,18,0,0,0,10-5,17,17,0,0,0,1.94-2.2l.87-1.2c.28-.41.5-.86.76-1.28s.5-.87.71-1.32l.59-1.39a18.79,18.79,0,0,0,1-2.85,32.53,32.53,0,0,0,.86-12.08,42.27,42.27,0,0,0-3.09-11.72,53.89,53.89,0,0,0-6-10.41,46.5,46.5,0,0,0-8.08-8.6,32,32,0,0,0-10-5.59,21.63,21.63,0,0,0-10.84-.82,17.11,17.11,0,0,0-9.31,5.13,26.71,26.71,0,0,0-5.8,9.76,34.18,34.18,0,0,0-1.85,11.88A38.88,38.88,0,0,0,340.53,231.22Zm-.47.17a66,66,0,0,1-3.1-12.15,41.06,41.06,0,0,1,0-12.81,26,26,0,0,1,5.41-12.17,21,21,0,0,1,11.83-7.13,24.52,24.52,0,0,1,13.65,1.12,35.48,35.48,0,0,1,11.34,6.91,44.19,44.19,0,0,1,8.36,10,51,51,0,0,1,5.24,11.72c2.36,8.18,3.14,16.82,1.22,25.12a29.52,29.52,0,0,1-5.35,11.69,8.72,8.72,0,0,1-1.09,1.26l-1.16,1.21c-.41.38-.87.71-1.31,1.07a12.28,12.28,0,0,1-1.36,1l-1.47.86-.74.42-.79.32a15.73,15.73,0,0,1-3.25,1.09,23,23,0,0,1-13.4-.91,31.09,31.09,0,0,1-11-7.12,49.16,49.16,0,0,1-7.72-10.15A73.9,73.9,0,0,1,340.06,231.39Z"
        transform="translate(-283.26 -119.43)" />
    <ellipse class="cls-1" cx="316.54" cy="261.6" rx="20.87" ry="30.53"
        transform="translate(-377.36 139.39) rotate(-39.18)" />
    <path class="cls-2"
        d="M297.79,270.85A34.36,34.36,0,0,0,313,283.47a36.71,36.71,0,0,0,9.11,2.69,19.14,19.14,0,0,0,8.9-.54,13.36,13.36,0,0,0,7.12-5.22,13.18,13.18,0,0,0,1.15-2l.48-1.09a11.65,11.65,0,0,0,.37-1.14c.12-.39.24-.78.33-1.17l.2-1.21a15.27,15.27,0,0,0,.23-2.44,25.84,25.84,0,0,0-1.73-9.7,35.53,35.53,0,0,0-4.8-8.65,48.79,48.79,0,0,0-6.74-7.1,40.64,40.64,0,0,0-7.9-5.46,29,29,0,0,0-8.81-3,17.18,17.18,0,0,0-8.62.7,12.57,12.57,0,0,0-6.42,5.18,20.29,20.29,0,0,0-2.81,8.59A29.6,29.6,0,0,0,297.79,270.85Zm-.42.27a62.88,62.88,0,0,1-4.89-9,34,34,0,0,1-2.75-10.2,20.13,20.13,0,0,1,1.92-11,16.6,16.6,0,0,1,8.73-7.78,6.81,6.81,0,0,1,1.4-.48l1.43-.37a25.77,25.77,0,0,1,2.89-.41c1,0,1.93,0,2.88,0s1.89.19,2.81.38a32.22,32.22,0,0,1,10.22,4,38.07,38.07,0,0,1,8.37,6.69,44.63,44.63,0,0,1,6.26,8.51c3.35,6.14,5.68,12.84,5.85,19.85a21,21,0,0,1,0,2.63l-.11,1.33c0,.44-.16.87-.22,1.31s-.13.89-.24,1.32l-.38,1.31a19.51,19.51,0,0,1-1,2.56,15.75,15.75,0,0,1-8,7.74,17.49,17.49,0,0,1-2.73.91,22.1,22.1,0,0,1-2.82.46c-.94,0-1.89,0-2.82,0s-1.86-.18-2.77-.36a27,27,0,0,1-9.91-4.28,42.45,42.45,0,0,1-7.8-7A75.23,75.23,0,0,1,297.37,271.12Z"
        transform="translate(-283.26 -119.43)" />
    <path class="cls-1"
        d="M620.16,317.75c-13.84-25.43-50.8-43.25-97.18-41-51.9,2.52-123.64,24-164.23,86C322.53,418,312.27,506.36,344.91,631c-113.19-304.82,85-365,175.76-369.68C429.88,248.69,313,290.45,291,407.68c-32.1,171.6,90.65,312.46,90.65,312.46-4.53-50.39,32.1-112.84,99.54-169.5C577.81,469.5,665.5,401,620.16,317.75Z"
        transform="translate(-283.26 -119.43)" />
    <path class="cls-2"
        d="M619.94,317.87a63.71,63.71,0,0,0-11-14.19l-3.32-3.05c-1.17-.95-2.36-1.86-3.54-2.79-.61-.45-1.17-.95-1.8-1.35l-1.88-1.25L596.51,294a21,21,0,0,0-1.91-1.19A108.83,108.83,0,0,0,561,280a148.6,148.6,0,0,0-35.89-2.85,235.35,235.35,0,0,0-103.24,29,178.82,178.82,0,0,0-54,46.59c-14.54,19-24.6,41.14-30.9,64.19s-9.05,47.08-9.43,71.05a447.51,447.51,0,0,0,5,71.8q2.56,17.83,6.19,35.53t8.13,35.16l-3.74,1.19c-7.12-19.49-13.45-39.28-18.69-59.36a459.65,459.65,0,0,1-11.9-61.09c-.69-5.14-1.12-10.32-1.6-15.49-.22-2.58-.33-5.18-.51-7.77l-.23-3.89-.12-3.89c0-2.59-.2-5.19-.18-7.78l0-7.79c.16-5.19.3-10.39.74-15.56,1.49-20.7,5.42-41.32,12.66-60.83a177.27,177.27,0,0,1,31.2-53.61,174.83,174.83,0,0,1,22.15-21.89,194.48,194.48,0,0,1,25.46-17.93,223.9,223.9,0,0,1,27.82-14c4.78-2,9.65-3.84,14.54-5.59s9.85-3.3,14.84-4.71a283.18,283.18,0,0,1,61.32-10.46l-.1,2.47a239.28,239.28,0,0,0-78.69,2.88A213.75,213.75,0,0,0,369,294.67a176.51,176.51,0,0,0-30.47,24.75,163.59,163.59,0,0,0-23.89,31.06,168.65,168.65,0,0,0-15.87,35.82c-1,3.12-1.77,6.31-2.66,9.46-.47,1.56-.78,3.17-1.13,4.78l-1,4.8-.52,2.4c-.16.8-.26,1.63-.4,2.44l-.77,4.87c-.5,3.25-1.08,6.5-1.51,9.76l-1,9.82-.52,4.9-.28,4.93-.56,9.86c-.1,3.29-.07,6.58-.11,9.87l0,4.94c-.05,1.64.1,3.29.13,4.93l.39,9.87c0,1.64.23,3.28.35,4.92l.41,4.92c.28,3.28.5,6.56,1,9.82l1.24,9.8c.47,3.26,1.08,6.5,1.61,9.75l.82,4.87c.3,1.61.66,3.22,1,4.84l2,9.66q4.55,19.23,10.8,38t14.35,36.84c5.32,12.06,11.23,23.87,17.56,35.44s13.15,22.87,20.41,33.88c3.66,5.48,7.38,10.93,11.29,16.23s7.9,10.59,12.08,15.53l-4.52,1.93a109.94,109.94,0,0,1,2.13-31.73A154,154,0,0,1,391,658.56a218.78,218.78,0,0,1,14.87-27.76,282.79,282.79,0,0,1,18.28-25.54,376.18,376.18,0,0,1,43.32-45.19c7.79-7,15.89-13.51,23.88-20.13l24-19.89c15.91-13.33,31.72-26.8,46.83-41s29.61-29.12,42.12-45.65a167,167,0,0,0,16.49-26.28,109,109,0,0,0,10-29.29,85.69,85.69,0,0,0-.26-30.88A102.56,102.56,0,0,0,619.94,317.87Zm.44-.24a102.93,102.93,0,0,1,10.76,29.2,86.28,86.28,0,0,1,.36,31.11,110,110,0,0,1-9.84,29.58,172.25,172.25,0,0,1-16.36,26.59c-12.35,16.79-26.72,32-41.68,46.41S533,508.68,517.25,522.26L493.54,542.5c-7.91,6.76-15.87,13.39-23.48,20.39a379,379,0,0,0-42.33,45.18,288.42,288.42,0,0,0-17.79,25.25,215.61,215.61,0,0,0-14.36,27.22,151.91,151.91,0,0,0-9.36,29.13,104.63,104.63,0,0,0-2,30.24L385,728l-5.22-6.12c-4.41-5.18-8.42-10.45-12.4-15.83s-7.76-10.87-11.47-16.41q-11.08-16.67-20.7-34.23c-6.4-11.7-12.37-23.65-17.75-35.86s-10.19-24.66-14.51-37.29-7.79-25.55-10.82-38.56l-2-9.8c-.33-1.64-.68-3.27-1-4.91l-.81-5c-.53-3.29-1.13-6.58-1.59-9.89l-1.23-9.94c-.47-3.31-.69-6.65-1-10l-.4-5c-.11-1.67-.31-3.33-.33-5l-.35-10c0-1.67-.18-3.34-.12-5l.05-5c.06-3.34,0-6.68.16-10l.6-10,.3-5,.55-5,1.1-10c.45-3.31,1-6.6,1.56-9.9l.8-5c.14-.82.25-1.65.42-2.47l.54-2.46,1.07-4.91c.36-1.64.69-3.29,1.18-4.9.92-3.22,1.75-6.48,2.76-9.68a170.58,170.58,0,0,1,16.46-36.71,168.42,168.42,0,0,1,24.72-31.71,181.29,181.29,0,0,1,31.33-25.13c22.62-14.4,48.1-24,74.29-29.07a243.29,243.29,0,0,1,79.67-2.18l-.11,2.48a280.74,280.74,0,0,0-60.91,9.86c-5,1.35-9.89,2.92-14.77,4.57s-9.71,3.49-14.45,5.51A220.51,220.51,0,0,0,403,296.32,191.15,191.15,0,0,0,377.65,314a172.32,172.32,0,0,0-52.85,74.82c-7.1,19.37-10.84,39.86-12.2,60.4-.38,5.15-.46,10.3-.57,15.45l.06,7.74c0,2.57.18,5.15.26,7.72l.15,3.87.28,3.85c.2,2.57.33,5.15.58,7.71.53,5.13,1,10.26,1.75,15.37a458.24,458.24,0,0,0,12.46,60.57c5.41,19.91,11.9,39.52,19.18,58.84L343,631.53a640.36,640.36,0,0,1-14.89-71.06A443,443,0,0,1,323.05,488a324.83,324.83,0,0,1,2.69-36.33A252.05,252.05,0,0,1,333,415.89a205.34,205.34,0,0,1,12.9-34.15,174,174,0,0,1,19.33-31,181.67,181.67,0,0,1,55.52-46.6,228.13,228.13,0,0,1,68.3-24,238.52,238.52,0,0,1,36-4,149.14,149.14,0,0,1,36.08,3.14A111.84,111.84,0,0,1,594.9,292.3c.66.36,1.29.78,1.92,1.21l1.89,1.26L600.6,296c.63.4,1.2.91,1.8,1.37,1.19.94,2.4,1.86,3.57,2.81l3.33,3.09A64,64,0,0,1,620.38,317.63Z"
        transform="translate(-283.26 -119.43)" />
    <path class="cls-3"
        d="M673.2,539H562.82l-50.39,58.19H609s-8.15,56.39-109.66,109.18c0,0-115.9-56.73-113.5-138.15L461,568c32-27,45-40,72-61l-145.35.24V464.05s80.31-74.39,204.53-14.4c14.74-17.15,26-33.8,31.82-49.65,0,0-154.82-101.37-294,39-5.3,33.71-6.29,73.1-5.34,115,0,0-9.08,148.17,176.93,216C501.59,770,688.8,705.81,673.2,539Z"
        transform="translate(-283.26 -119.43)" />
    <path class="cls-4"
        d="M623.5,485.85h14.79a8.67,8.67,0,0,1,8.68,8.68v14.79a8.68,8.68,0,0,0,8.68,8.68h21.94a8.68,8.68,0,0,0,8.68-8.68V494.53a8.68,8.68,0,0,1,8.68-8.68h14.79a8.69,8.69,0,0,0,8.69-8.69V455.23a8.68,8.68,0,0,0-8.69-8.68H695a8.68,8.68,0,0,1-8.68-8.68V423.08a8.68,8.68,0,0,0-8.68-8.69H655.65a8.69,8.69,0,0,0-8.68,8.69v14.79a8.68,8.68,0,0,1-8.68,8.68H623.5a8.68,8.68,0,0,0-8.68,8.68v21.93A8.69,8.69,0,0,0,623.5,485.85Z"
        transform="translate(-283.26 -119.43)" />
</svg>